<?xml version="1.0" encoding="utf-8"?>
<!-- Generator: Adobe Illustrator 24.2.0, SVG Export Plug-In . SVG Version: 6.00 Build 0)  -->
<svg version="1.1" id="Layer_1" xmlns="http://www.w3.org/2000/svg" xmlns:xlink="http://www.w3.org/1999/xlink" x="0px" y="0px"
	 viewBox="0 0 530.97 551.99" style="enable-background:new 0 0 530.97 551.99;" xml:space="preserve">
<style type="text/css">
	.st0{fill-rule:evenodd;clip-rule:evenodd;fill:#FFFFFF;}
	.st1{fill:#FFFFFF;}
</style>
<g>
	<path class="st0" d="M265.49,36.12c-135.81,0-245.95,110.11-245.95,245.95c0,108.66,70.47,200.86,168.19,233.38
		c12.29,2.28,16.8-5.34,16.8-11.83c0-5.86-0.23-25.24-0.33-45.79c-68.42,14.88-82.86-29.02-82.86-29.02
		c-11.19-28.43-27.31-35.99-27.31-35.99c-22.32-15.26,1.68-14.95,1.68-14.95c24.7,1.73,37.7,25.35,37.7,25.35
		c21.93,37.6,57.54,26.73,71.57,20.44c2.21-15.89,8.58-26.75,15.62-32.89c-54.63-6.22-112.06-27.31-112.06-121.55
		c0-26.85,9.61-48.79,25.34-66.02c-2.55-6.2-10.97-31.21,2.38-65.09c0,0,20.65-6.61,67.65,25.21c19.62-5.45,40.66-8.18,61.56-8.28
		c20.9,0.1,41.96,2.83,61.61,8.28c46.94-31.82,67.57-25.21,67.57-25.21c13.39,33.88,4.97,58.89,2.41,65.09
		c15.77,17.22,25.31,39.16,25.31,66.02c0,94.47-57.54,115.26-112.3,121.35c8.82,7.63,16.68,22.6,16.68,45.54
		c0,32.91-0.28,59.39-0.28,67.5c0,6.55,4.43,14.22,16.89,11.8c97.67-32.56,168.05-124.72,168.05-233.35
		C511.43,146.23,401.32,36.12,265.49,36.12z"/>
	<path class="st1" d="M112.69,389.24c-0.54,1.23-2.47,1.59-4.22,0.75c-1.79-0.8-2.78-2.47-2.21-3.69c0.53-1.26,2.45-1.61,4.24-0.77
		C112.29,386.34,113.31,388.02,112.69,389.24L112.69,389.24z M109.67,387"/>
	<path class="st1" d="M122.66,400.36c-1.17,1.09-3.47,0.58-5.02-1.14c-1.61-1.71-1.91-4.01-0.72-5.11c1.21-1.09,3.43-0.58,5.04,1.14
		C123.57,396.98,123.88,399.25,122.66,400.36L122.66,400.36z M120.31,397.84"/>
	<path class="st1" d="M132.35,414.52c-1.51,1.05-3.97,0.07-5.5-2.12c-1.51-2.19-1.51-4.81,0.04-5.86c1.52-1.05,3.95-0.1,5.5,2.06
		C133.89,410.82,133.89,413.45,132.35,414.52L132.35,414.52z M132.35,414.52"/>
	<path class="st1" d="M145.64,428.2c-1.35,1.49-4.22,1.09-6.32-0.94c-2.15-1.98-2.75-4.8-1.4-6.28c1.37-1.49,4.26-1.07,6.37,0.94
		C146.42,423.9,147.07,426.73,145.64,428.2L145.64,428.2z M145.64,428.2"/>
	<path class="st1" d="M163.97,436.15c-0.6,1.93-3.36,2.8-6.15,1.98c-2.78-0.84-4.6-3.1-4.04-5.04c0.58-1.94,3.36-2.85,6.16-1.98
		C162.72,431.95,164.54,434.19,163.97,436.15L163.97,436.15z M163.97,436.15"/>
	<path class="st1" d="M184.09,437.62c0.07,2.03-2.3,3.71-5.22,3.75c-2.94,0.07-5.32-1.57-5.35-3.57c0-2.05,2.31-3.71,5.25-3.76
		C181.7,433.98,184.09,435.61,184.09,437.62L184.09,437.62z M184.09,437.62"/>
	<path class="st1" d="M202.82,434.44c0.35,1.98-1.68,4.01-4.59,4.55c-2.86,0.52-5.5-0.7-5.86-2.66c-0.35-2.03,1.71-4.06,4.57-4.59
		C199.85,431.24,202.45,432.42,202.82,434.44L202.82,434.44z M202.82,434.44"/>
</g>
</svg>
